<?xml version="1.0" encoding="UTF-8"?>
<!DOCTYPE svg PUBLIC "-//W3C//DTD SVG 1.1//EN" "http://www.w3.org/Graphics/SVG/1.1/DTD/svg11.dtd">
<!-- Creator: CorelDRAW X7 -->
<svg xmlns="http://www.w3.org/2000/svg" xml:space="preserve" width="18px" height="18px" version="1.1" style="shape-rendering:geometricPrecision; text-rendering:geometricPrecision; image-rendering:optimizeQuality; fill-rule:evenodd; clip-rule:evenodd"
viewBox="0 0 18 18"
 xmlns:xlink="http://www.w3.org/1999/xlink">
 <defs>
  <style type="text/css">
   <![CDATA[
    .fil0 {fill:#D80027}
   ]]>
  </style>
 </defs>
 <g id="Слой_x0020_1">
  <metadata id="CorelCorpID_0Corel-Layer"/>
  <g id="_716053232">
   <g id="Attention">
    <g>
     <path class="fil0" d="M17 15l-7 -13c0,-1 -1,-1 -1,-1 0,0 -1,0 -1,1l-7 13c0,0 0,0 0,0 0,1 1,2 1,2l14 0c0,0 1,-1 1,-2 0,0 0,0 0,0zm-15 1l7 -13 0 0 0 0 7 12 -14 1zm7 -4c0,0 -1,0 -1,1 0,1 1,1 1,1 0,0 1,0 1,-1 0,-1 -1,-1 -1,-1zm-1 -4c0,0 0,0 0,0l1 3c0,0 0,0 0,0 0,0 0,0 0,0l1 -3c0,0 0,0 0,0 0,-1 -1,-2 -1,-2 0,0 -1,1 -1,2z"/>
    </g>
   </g>
  </g>
  <g id="_709081680">
  </g>
  <g id="_709081200">
  </g>
  <g id="_709081328">
  </g>
  <g id="_709080464">
  </g>
  <g id="_709081360">
  </g>
  <g id="_709081520">
  </g>
  <g id="_709079984">
  </g>
  <g id="_709082288">
  </g>
  <g id="_709080912">
  </g>
  <g id="_709080720">
  </g>
  <g id="_709075760">
  </g>
  <g id="_709080208">
  </g>
  <g id="_709081968">
  </g>
  <g id="_709080400">
  </g>
  <g id="_709081904">
  </g>
 </g>
</svg>
