<?xml version="1.0" encoding="UTF-8"?>
<!DOCTYPE svg PUBLIC "-//W3C//DTD SVG 1.1//EN" "http://www.w3.org/Graphics/SVG/1.1/DTD/svg11.dtd">
<!-- Creator: CorelDRAW X7 -->
<svg xmlns="http://www.w3.org/2000/svg" xml:space="preserve" width="18px" height="18px" version="1.1" style="shape-rendering:geometricPrecision; text-rendering:geometricPrecision; image-rendering:optimizeQuality; fill-rule:evenodd; clip-rule:evenodd"
viewBox="0 0 18 18"
 xmlns:xlink="http://www.w3.org/1999/xlink">
 <defs>
  <style type="text/css">
   <![CDATA[
    .fil0 {fill:#EF7F1A}
   ]]>
  </style>
 </defs>
 <g id="Слой_x0020_1">
  <metadata id="CorelCorpID_0Corel-Layer"/>
  <g id="_720399040">
   <path class="fil0" d="M16 6l0 1 -5 -5 1 0c1,-1 2,-1 3,0l1 1c1,1 1,2 0,3l0 0 0 0zm-9 8c-1,1 -1,1 0,1 0,0 0,0 0,0l8 -8 -1 0 -7 7zm-4 -3c0,0 0,0 0,0 0,1 0,1 1,0l7 -7 0 -1 -8 8zm9 -7l-8 8c0,1 0,1 0,2 1,0 1,0 2,0l8 -8 -2 -2zm-6 12c0,-1 -1,-1 -1,-1 0,0 0,0 0,0 0,0 -1,0 -1,-1 -1,0 -1,-1 -1,-1 0,0 0,0 0,0 0,0 0,-1 -1,-1 0,0 0,0 0,0l-1 5 5 -1c0,0 0,0 0,0l0 0 0 0z"/>
  </g>
  <g id="_720401120">
  </g>
  <g id="_720397728">
  </g>
  <g id="_720397312">
  </g>
  <g id="_720395968">
  </g>
  <g id="_720396480">
  </g>
  <g id="_720396928">
  </g>
  <g id="_720396960">
  </g>
  <g id="_720402720">
  </g>
  <g id="_720401728">
  </g>
  <g id="_720403552">
  </g>
  <g id="_720401920">
  </g>
  <g id="_720402880">
  </g>
  <g id="_720396384">
  </g>
  <g id="_720403264">
  </g>
  <g id="_137887184">
  </g>
 </g>
</svg>
