<?xml version="1.0" encoding="UTF-8"?>
<!DOCTYPE svg PUBLIC "-//W3C//DTD SVG 1.1//EN" "http://www.w3.org/Graphics/SVG/1.1/DTD/svg11.dtd">
<!-- Creator: CorelDRAW X7 -->
<svg xmlns="http://www.w3.org/2000/svg" xml:space="preserve" width="18px" height="22px" version="1.1" style="shape-rendering:geometricPrecision; text-rendering:geometricPrecision; image-rendering:optimizeQuality; fill-rule:evenodd; clip-rule:evenodd"
viewBox="0 0 18 22"
 xmlns:xlink="http://www.w3.org/1999/xlink">
 <defs>
  <style type="text/css">
   <![CDATA[
    .fil0 {fill:#E31E24}
   ]]>
  </style>
 </defs>
 <g id="Слой_x0020_1">
  <metadata id="CorelCorpID_0Corel-Layer"/>
  <g id="_720599744">
   <g>
    <path class="fil0" d="M17 6l-7 -5c0,0 -1,0 -1,0 0,0 -1,0 -1,0l-7 5c0,0 0,0 0,0l2 0 0 9c0,0 1,0 1,0l10 0c0,0 1,0 1,0l0 -9 2 0c0,0 0,0 0,0z"/>
    <path class="fil0" d="M4 18l10 0c0,0 1,0 1,0l0 -1c0,-1 -1,-1 -1,-1l-10 0c0,0 -1,0 -1,1l0 1c0,0 1,0 1,0z"/>
    <path class="fil0" d="M3 20c0,1 1,1 1,1l10 0c0,0 1,0 1,-1l0 0c0,-1 -1,-1 -1,-1l-10 0c0,0 -1,0 -1,1l0 0z"/>
   </g>
  </g>
  <g id="_720586336">
  </g>
  <g id="_720586240">
  </g>
  <g id="_720588704">
  </g>
  <g id="_720589760">
  </g>
  <g id="_720586368">
  </g>
  <g id="_720599168">
  </g>
  <g id="_720597984">
  </g>
  <g id="_720600352">
  </g>
  <g id="_720595872">
  </g>
  <g id="_720601728">
  </g>
  <g id="_720599264">
  </g>
  <g id="_720595008">
  </g>
  <g id="_720598496">
  </g>
  <g id="_720594560">
  </g>
  <g id="_720596000">
  </g>
 </g>
</svg>
