<?xml version="1.0" encoding="UTF-8"?>
<!DOCTYPE svg PUBLIC "-//W3C//DTD SVG 1.1//EN" "http://www.w3.org/Graphics/SVG/1.1/DTD/svg11.dtd">
<!-- Creator: CorelDRAW X7 -->
<svg xmlns="http://www.w3.org/2000/svg" xml:space="preserve" width="18px" height="18px" version="1.1" style="shape-rendering:geometricPrecision; text-rendering:geometricPrecision; image-rendering:optimizeQuality; fill-rule:evenodd; clip-rule:evenodd"
viewBox="0 0 18 18"
 xmlns:xlink="http://www.w3.org/1999/xlink">
 <defs>
  <style type="text/css">
   <![CDATA[
    .fil0 {fill:#D80027}
   ]]>
  </style>
 </defs>
 <g id="Слой_x0020_1">
  <metadata id="CorelCorpID_0Corel-Layer"/>
  <g id="_718038512">
   <path class="fil0" d="M15 3c-2,-1 -4,-2 -6,-2 -2,0 -4,1 -6,2 -1,2 -2,4 -2,6 0,2 1,4 2,6 2,1 4,2 6,2 2,0 4,-1 6,-2 1,-2 2,-4 2,-6 0,-2 -1,-4 -2,-6zm-12 6c0,-2 0,-3 2,-4 1,-2 2,-2 4,-2 1,0 3,0 4,1l-9 9c-1,-1 -1,-3 -1,-4zm10 4c-1,2 -2,2 -4,2 -1,0 -3,0 -4,-1l9 -9c1,1 1,3 1,4 0,2 0,3 -2,4z"/>
  </g>
  <g id="_718038256">
  </g>
  <g id="_719250752">
  </g>
  <g id="_716721168">
  </g>
  <g id="_707591952">
  </g>
  <g id="_718734528">
  </g>
  <g id="_718734432">
  </g>
  <g id="_3604704">
  </g>
  <g id="_715092624">
  </g>
  <g id="_600214976">
  </g>
  <g id="_600215104">
  </g>
  <g id="_718475120">
  </g>
  <g id="_718475152">
  </g>
  <g id="_719137296">
  </g>
  <g id="_719140944">
  </g>
  <g id="_719139856">
  </g>
 </g>
</svg>
