<?xml version="1.0" encoding="UTF-8"?>
<!DOCTYPE svg PUBLIC "-//W3C//DTD SVG 1.1//EN" "http://www.w3.org/Graphics/SVG/1.1/DTD/svg11.dtd">
<!-- Creator: CorelDRAW X7 -->
<svg xmlns="http://www.w3.org/2000/svg" xml:space="preserve" width="18px" height="18px" version="1.1" style="shape-rendering:geometricPrecision; text-rendering:geometricPrecision; image-rendering:optimizeQuality; fill-rule:evenodd; clip-rule:evenodd"
viewBox="0 0 18 18"
 xmlns:xlink="http://www.w3.org/1999/xlink">
 <defs>
  <style type="text/css">
   <![CDATA[
    .fil0 {fill:#91DC5A}
   ]]>
  </style>
 </defs>
 <g id="Слой_x0020_1">
  <metadata id="CorelCorpID_0Corel-Layer"/>
  <g id="_711863616">
   <path class="fil0" d="M17 7l-6 0 0 -5c0,-1 0,-1 0,-1l-3 0c-1,0 -1,0 -1,1l0 5 -5 0c-1,0 -1,0 -1,1l0 3c0,0 0,0 1,0l5 0 0 6c0,0 0,0 1,0l3 0c0,0 0,0 0,0l0 -6 6 0c0,0 0,0 0,0l0 -3c0,-1 0,-1 0,-1z"/>
  </g>
  <g id="_711863776">
  </g>
  <g id="_711867008">
  </g>
  <g id="_711866304">
  </g>
  <g id="_711865920">
  </g>
  <g id="_713554928">
  </g>
  <g id="_713555600">
  </g>
  <g id="_713555824">
  </g>
  <g id="_713552560">
  </g>
  <g id="_713552208">
  </g>
  <g id="_713556272">
  </g>
  <g id="_713552816">
  </g>
  <g id="_713555888">
  </g>
  <g id="_713552144">
  </g>
  <g id="_713555504">
  </g>
  <g id="_713549744">
  </g>
 </g>
</svg>
