<?xml version="1.0" encoding="UTF-8"?>
<!DOCTYPE svg PUBLIC "-//W3C//DTD SVG 1.1//EN" "http://www.w3.org/Graphics/SVG/1.1/DTD/svg11.dtd">
<!-- Creator: CorelDRAW X7 -->
<svg xmlns="http://www.w3.org/2000/svg" xml:space="preserve" width="18px" height="18px" version="1.1" style="shape-rendering:geometricPrecision; text-rendering:geometricPrecision; image-rendering:optimizeQuality; fill-rule:evenodd; clip-rule:evenodd"
viewBox="0 0 18 18"
 xmlns:xlink="http://www.w3.org/1999/xlink">
 <defs>
  <style type="text/css">
   <![CDATA[
    .fil0 {fill:#EF7F1A}
   ]]>
  </style>
 </defs>
 <g id="Слой_x0020_1">
  <metadata id="CorelCorpID_0Corel-Layer"/>
  <g id="_1006141728">
   <path class="fil0" d="M11 3c0,-1 -1,-2 -2,-2 -1,0 -2,1 -2,2l-6 0 0 14 16 0 0 -14 -6 0 0 0 0 0zm-2 -1c1,0 1,0 1,1l-2 0c0,-1 0,-1 1,-1zm6 12l-2 1 0 -1 2 0 0 0zm-4 -1l0 3 -8 0 0 -12 3 0 0 2 6 0 0 -2 3 0 0 9 -4 0 0 0 0 0z"/>
  </g>
  <g id="_1006141344">
  </g>
  <g id="_719421696">
  </g>
  <g id="_719423616">
  </g>
  <g id="_719420064">
  </g>
  <g id="_719420000">
  </g>
  <g id="_719423552">
  </g>
  <g id="_719420512">
  </g>
  <g id="_1006268240">
  </g>
  <g id="_1006263056">
  </g>
  <g id="_1006262896">
  </g>
  <g id="_1006269328">
  </g>
  <g id="_1006265168">
  </g>
  <g id="_1006269616">
  </g>
  <g id="_1006270256">
  </g>
  <g id="_1006265008">
  </g>
 </g>
</svg>
