<?xml version="1.0" encoding="UTF-8"?>
<!DOCTYPE svg PUBLIC "-//W3C//DTD SVG 1.1//EN" "http://www.w3.org/Graphics/SVG/1.1/DTD/svg11.dtd">
<!-- Creator: CorelDRAW X7 -->
<svg xmlns="http://www.w3.org/2000/svg" xml:space="preserve" width="18px" height="18px" version="1.1" style="shape-rendering:geometricPrecision; text-rendering:geometricPrecision; image-rendering:optimizeQuality; fill-rule:evenodd; clip-rule:evenodd"
viewBox="0 0 18 18"
 xmlns:xlink="http://www.w3.org/1999/xlink">
 <defs>
  <style type="text/css">
   <![CDATA[
    .fil0 {fill:#D80027}
   ]]>
  </style>
 </defs>
 <g id="Слой_x0020_1">
  <metadata id="CorelCorpID_0Corel-Layer"/>
  <g id="_726542448">
   <g>
    <path class="fil0" d="M9 1c-2,0 -3,1 -4,3l8 0c-1,-2 -2,-3 -4,-3z"/>
    <path class="fil0" d="M16 9l-2 0c0,-1 0,-1 0,-2 1,-1 2,-2 2,-3 0,-1 0,-1 0,-1 -1,0 -1,0 -1,0 0,1 -1,2 -1,2l-10 0c0,0 -1,-1 -1,-2 0,0 0,0 -1,0 0,0 0,0 0,1 0,1 1,2 2,3 0,1 0,1 0,2l-2 0c-1,0 -1,0 -1,1 0,0 0,1 1,1l3 0c0,0 0,1 0,1 -1,1 -2,3 -2,4 0,0 0,1 0,1 0,0 0,0 1,0 0,0 0,0 0,0 1,-2 2,-3 2,-3 1,0 2,0 3,0l0 -7 0 0 0 7c1,0 2,0 3,0 0,0 1,1 2,3 0,0 0,0 0,0 1,0 1,0 1,0 0,0 0,-1 0,-1 0,-1 -1,-3 -2,-4 0,0 0,-1 0,-1l3 0c1,0 1,-1 1,-1 0,-1 0,-1 -1,-1z"/>
   </g>
  </g>
  <g id="_726540496">
  </g>
  <g id="_726542288">
  </g>
  <g id="_719939872">
  </g>
  <g id="_719936576">
  </g>
  <g id="_719937888">
  </g>
  <g id="_719937824">
  </g>
  <g id="_719936832">
  </g>
  <g id="_719936096">
  </g>
  <g id="_719938336">
  </g>
  <g id="_719938912">
  </g>
  <g id="_719937792">
  </g>
  <g id="_719650224">
  </g>
  <g id="_719648464">
  </g>
  <g id="_719647824">
  </g>
  <g id="_719647088">
  </g>
 </g>
</svg>
