<?xml version="1.0" encoding="UTF-8"?>
<!DOCTYPE svg PUBLIC "-//W3C//DTD SVG 1.1//EN" "http://www.w3.org/Graphics/SVG/1.1/DTD/svg11.dtd">
<!-- Creator: CorelDRAW X7 -->
<svg xmlns="http://www.w3.org/2000/svg" xml:space="preserve" width="18px" height="18px" version="1.1" style="shape-rendering:geometricPrecision; text-rendering:geometricPrecision; image-rendering:optimizeQuality; fill-rule:evenodd; clip-rule:evenodd"
viewBox="0 0 18 18"
 xmlns:xlink="http://www.w3.org/1999/xlink"
 enable-background="new 0 0 512 512">
 <defs>
  <style type="text/css">
   <![CDATA[
    .fil0 {fill:#91DC5A}
   ]]>
  </style>
 </defs>
 <g id="Слой_x0020_1">
  <metadata id="CorelCorpID_0Corel-Layer"/>
  <g id="_720018240">
   <g>
    <path class="fil0" d="M3 14c0,0 1,0 1,0l3 -4 2 3c1,0 1,0 1,0 0,0 0,0 0,0l5 -7 0 2c0,1 1,1 1,1 0,0 0,0 0,-1l0 -4c0,0 0,0 -1,0l-3 0c-1,0 -1,0 -1,1 0,0 0,0 1,0l2 0 -4 6 -3 -2c0,-1 0,-1 0,-1 -1,0 -1,0 -1,1l-3 4c0,0 0,1 0,1l0 0z"/>
    <path class="fil0" d="M16 16l-14 0 0 -14c0,-1 0,-1 0,-1 -1,0 -1,0 -1,1l0 14c0,1 0,1 1,1l14 0c1,0 1,0 1,-1 0,0 0,0 -1,0z"/>
   </g>
  </g>
 </g>
</svg>
